# Blender v2.80 (sub 75) OBJ File: 'philipp_plein.blend'
# www.blender.org
mtllib philipp_plein.mtl
o Circle.001_Circle.002
v -2.417109 0.000000 -0.000000
v -1.208554 0.000000 2.093277
v 1.208554 0.000000 2.093277
v 2.417109 0.000000 -0.000000
v 1.208554 0.000000 -2.093277
v -1.208554 0.000000 -2.093277
vt 0.252642 0.928437
vt 0.994717 0.500000
vt 0.747358 0.928437
vt 0.747358 0.071563
vt 0.005283 0.500000
vt 0.252642 0.071563
vn 0.0000 1.0000 0.0000
usemtl Material.002
s off
f 6/1/1 4/2/1 5/3/1
f 3/4/1 1/5/1 2/6/1
f 6/1/1 1/5/1 4/2/1
f 3/4/1 4/2/1 1/5/1
