# Blender v2.80 (sub 75) OBJ File: 'punisher.blend'
# www.blender.org
o Plane
v 0.000000 0.000000 1.543750
v 0.000000 0.000000 1.543750
v -1.694567 0.000000 -1.717813
v 1.694567 0.000000 -1.717813
v -2.414067 0.000000 -0.924482
v 2.414067 0.000000 -0.924482
vt 0.982035 0.685808
vt 0.156109 0.845285
vt 0.011474 0.685808
vt 0.496754 0.189639
vt 0.837400 0.845285
vt 0.496754 0.189639
vn 0.0000 1.0000 0.0000
vn 0.0000 0.0000 1.0000
s off
f 6/1/1 3/2/1 5/3/1
f 1/4/1 6/1/1 5/3/1
f 6/1/1 4/5/1 3/2/1
f 1/4/2 2/6/2 6/1/2
