# Blender v2.80 (sub 75) OBJ File: 'punisher.blend'
# www.blender.org
mtllib punisher.mtl
o Plane
v 0.000000 0.000000 1.724082
v 0.000000 0.000000 1.724082
v -1.724924 0.000000 -1.717813
v 1.724924 0.000000 -1.717813
v -2.495338 0.000000 -0.957075
v 2.495338 0.000000 -0.957075
vt 1.001304 0.690410
vt 0.156942 0.842614
vt 0.002803 0.690410
vt 0.502053 0.153982
vt 0.847164 0.842614
vt 0.502053 0.153982
vn 0.0000 1.0000 0.0000
vn 0.0000 0.0000 1.0000
usemtl Material
s off
f 6/1/1 3/2/1 5/3/1
f 1/4/1 6/1/1 5/3/1
f 6/1/1 4/5/1 3/2/1
f 1/4/2 2/6/2 6/1/2
