# Blender v2.80 (sub 75) OBJ File: 'tesla.blend'
# www.blender.org
o BezierCurve.003_BezierCurve.005
v 0.006512 0.000000 2.624111
v -0.010039 0.000000 2.617656
v -0.057810 0.000000 2.596351
v -0.133971 0.000000 2.557285
v -0.235696 0.000000 2.497549
v -0.360156 0.000000 2.414232
v -0.504525 0.000000 2.304425
v -0.665975 0.000000 2.165218
v -0.841679 0.000000 1.993700
v -1.028808 0.000000 1.786962
v -1.224535 0.000000 1.542094
v -1.426034 0.000000 1.256185
v -1.630476 0.000000 0.926326
v -1.815631 0.000000 0.585594
v -1.963809 0.000000 0.269627
v -2.078987 0.000000 -0.020649
v -2.165146 0.000000 -0.284306
v -2.226266 0.000000 -0.520417
v -2.266325 0.000000 -0.728055
v -2.289303 0.000000 -0.906293
v -2.299180 0.000000 -1.054203
v -2.299934 0.000000 -1.170858
v -2.295546 0.000000 -1.255331
v -2.289995 0.000000 -1.306695
v -2.287261 0.000000 -1.324022
v -2.273522 0.000000 -1.335407
v -2.231539 0.000000 -1.366894
v -2.160159 0.000000 -1.414481
v -2.058232 0.000000 -1.474166
v -1.924605 0.000000 -1.541947
v -1.758129 0.000000 -1.613823
v -1.557650 0.000000 -1.685791
v -1.322018 0.000000 -1.753849
v -1.050081 0.000000 -1.813996
v -0.740688 0.000000 -1.862229
v -0.392687 0.000000 -1.894547
v -0.004927 0.000000 -1.906948
v 0.382892 0.000000 -1.896653
v 0.731056 0.000000 -1.866226
v 1.040695 0.000000 -1.819673
v 1.312940 0.000000 -1.761004
v 1.548922 0.000000 -1.694227
v 1.749772 0.000000 -1.623349
v 1.916619 0.000000 -1.552378
v 2.050596 0.000000 -1.485324
v 2.152831 0.000000 -1.426193
v 2.224457 0.000000 -1.378994
v 2.266603 0.000000 -1.347736
v 2.280401 0.000000 -1.336426
v 2.283232 0.000000 -1.319113
v 2.289070 0.000000 -1.267780
v 2.293928 0.000000 -1.183332
v 2.293821 0.000000 -1.066675
v 2.284764 0.000000 -0.918713
v 2.262771 0.000000 -0.740354
v 2.223858 0.000000 -0.532501
v 2.164038 0.000000 -0.296062
v 2.079326 0.000000 -0.031941
v 1.965737 0.000000 0.258956
v 1.819285 0.000000 0.575724
v 1.635986 0.000000 0.917456
v 1.433304 0.000000 1.248421
v 1.233267 0.000000 1.535420
v 1.038730 0.000000 1.781348
v 0.852548 0.000000 1.989100
v 0.677577 0.000000 2.161570
v 0.516671 0.000000 2.301652
v 0.372686 0.000000 2.412242
v 0.248477 0.000000 2.496234
v 0.146901 0.000000 2.556522
v 0.070811 0.000000 2.596001
v 0.023063 0.000000 2.617566
vt 0.428972 0.849897
vt 0.572009 0.850285
vt 0.500485 0.852184
vt 0.636219 0.844673
vt 0.364792 0.843936
vt 0.693324 0.836088
vt 0.307731 0.835041
vt 0.743533 0.825268
vt 0.257579 0.823948
vt 0.787054 0.812952
vt 0.214123 0.811397
vt 0.824096 0.799881
vt 0.177149 0.798124
vt 0.854867 0.786792
vt 0.146447 0.784868
vt 0.879576 0.774425
vt 0.121803 0.772368
vt 0.898430 0.763520
vt 0.103005 0.761360
vt 0.911640 0.754815
vt 0.089840 0.752584
vt 0.919413 0.749051
vt 0.082097 0.746777
vt 0.921958 0.746965
vt 0.922480 0.743772
vt 0.079564 0.744677
vt 0.079060 0.741482
vt 0.923556 0.734305
vt 0.078036 0.732009
vt 0.924452 0.718731
vt 0.077226 0.716430
vt 0.924432 0.697216
vt 0.077366 0.694916
vt 0.922762 0.669928
vt 0.079187 0.667637
vt 0.918706 0.637034
vt 0.083425 0.634766
vt 0.911529 0.598700
vt 0.090813 0.596472
vt 0.900497 0.555095
vt 0.102085 0.552927
vt 0.884874 0.506384
vt 0.117975 0.504302
vt 0.863925 0.452735
vt 0.139217 0.450767
vt 0.836916 0.394315
vt 0.166544 0.392495
vt 0.803111 0.331291
vt 0.200692 0.329655
vt 0.765731 0.270253
vt 0.238396 0.268821
vt 0.728839 0.217323
vt 0.275558 0.216092
vt 0.692962 0.171967
vt 0.311655 0.170932
vt 0.658625 0.133653
vt 0.346166 0.132804
vt 0.626356 0.101845
vt 0.378570 0.101172
vt 0.596681 0.076010
vt 0.408346 0.075499
vt 0.570126 0.055614
vt 0.434971 0.055247
vt 0.547219 0.040124
vt 0.457925 0.039882
vt 0.528486 0.029005
vt 0.476686 0.028865
vt 0.514453 0.021724
vt 0.490732 0.021660
vt 0.505647 0.017747
vt 0.499542 0.017731
vt 0.502594 0.016540
vn 0.0000 1.0000 0.0000
s off
f 36/1/1 38/2/1 37/3/1
f 36/1/1 39/4/1 38/2/1
f 35/5/1 39/4/1 36/1/1
f 35/5/1 40/6/1 39/4/1
f 34/7/1 40/6/1 35/5/1
f 34/7/1 41/8/1 40/6/1
f 33/9/1 41/8/1 34/7/1
f 33/9/1 42/10/1 41/8/1
f 32/11/1 42/10/1 33/9/1
f 32/11/1 43/12/1 42/10/1
f 31/13/1 43/12/1 32/11/1
f 31/13/1 44/14/1 43/12/1
f 30/15/1 44/14/1 31/13/1
f 30/15/1 45/16/1 44/14/1
f 29/17/1 45/16/1 30/15/1
f 29/17/1 46/18/1 45/16/1
f 28/19/1 46/18/1 29/17/1
f 28/19/1 47/20/1 46/18/1
f 27/21/1 47/20/1 28/19/1
f 27/21/1 48/22/1 47/20/1
f 26/23/1 48/22/1 27/21/1
f 26/23/1 49/24/1 48/22/1
f 26/23/1 50/25/1 49/24/1
f 25/26/1 50/25/1 26/23/1
f 24/27/1 50/25/1 25/26/1
f 24/27/1 51/28/1 50/25/1
f 23/29/1 51/28/1 24/27/1
f 23/29/1 52/30/1 51/28/1
f 22/31/1 52/30/1 23/29/1
f 22/31/1 53/32/1 52/30/1
f 21/33/1 53/32/1 22/31/1
f 21/33/1 54/34/1 53/32/1
f 20/35/1 54/34/1 21/33/1
f 20/35/1 55/36/1 54/34/1
f 19/37/1 55/36/1 20/35/1
f 19/37/1 56/38/1 55/36/1
f 18/39/1 56/38/1 19/37/1
f 18/39/1 57/40/1 56/38/1
f 17/41/1 57/40/1 18/39/1
f 17/41/1 58/42/1 57/40/1
f 16/43/1 58/42/1 17/41/1
f 16/43/1 59/44/1 58/42/1
f 15/45/1 59/44/1 16/43/1
f 15/45/1 60/46/1 59/44/1
f 14/47/1 60/46/1 15/45/1
f 14/47/1 61/48/1 60/46/1
f 13/49/1 61/48/1 14/47/1
f 13/49/1 62/50/1 61/48/1
f 12/51/1 62/50/1 13/49/1
f 12/51/1 63/52/1 62/50/1
f 11/53/1 63/52/1 12/51/1
f 11/53/1 64/54/1 63/52/1
f 10/55/1 64/54/1 11/53/1
f 10/55/1 65/56/1 64/54/1
f 9/57/1 65/56/1 10/55/1
f 9/57/1 66/58/1 65/56/1
f 8/59/1 66/58/1 9/57/1
f 8/59/1 67/60/1 66/58/1
f 7/61/1 67/60/1 8/59/1
f 7/61/1 68/62/1 67/60/1
f 6/63/1 68/62/1 7/61/1
f 6/63/1 69/64/1 68/62/1
f 5/65/1 69/64/1 6/63/1
f 5/65/1 70/66/1 69/64/1
f 4/67/1 70/66/1 5/65/1
f 4/67/1 71/68/1 70/66/1
f 3/69/1 71/68/1 4/67/1
f 3/69/1 72/70/1 71/68/1
f 2/71/1 72/70/1 3/69/1
f 2/71/1 1/72/1 72/70/1
